# xmcd
#
# Track frame offsets:
#	180
#	15664
#	29869
#	47793
#	61038
#	73835
#	84951
#	99307
#	114164
#	128654
#	141647
#	155954
#
# Disc length: 2276 seconds
#
# Revision: 0
# Processed by: cddbd v1.5PL3 Copyright (c) Steve Scherf et al.
# Submitted via: dBpowerAMP V4.0
#
DISCID=a508e20c
DTITLE=Banda Pequeños Musical - Cada vez mas Grande
DYEAR=1900
DGENRE=Banda
TTITLE0=A mi ex
TTITLE1=Estaras sola
TTITLE2=arrasando
TTITLE3=Gandalla
TTITLE4=Un mar de vino
TTITLE5=El Tinaco
TTITLE6=Pistola Tirada
TTITLE7=Ando que me lleva
TTITLE8=Ni un adios
TTITLE9=Mis Pies
TTITLE10=Musico celoso
TTITLE11=Vendiendo Amor
EXTD=
EXTT0=
EXTT1=
EXTT2=
EXTT3=
EXTT4=
EXTT5=
EXTT6=
EXTT7=
EXTT8=
EXTT9=
EXTT10=
EXTT11=
PLAYORDER=
